<svg id="Layer_1" xmlns="http://www.w3.org/2000/svg" width="265.7" height="265.7" viewBox="0 0 265.7 265.7"><style>.st0{fill:#fff}</style><title>logo</title><path class="st0" d="M66.8 207.7l-8.1-7.3 66.6-66.5-67.9-67.8 8-6.8 66.8 66.9L200.3 58l6.3 8.6-66.4 66.3 67 66.9-6.9 7.3-66.5-66.6-67 67.2zM0 161.3v-56.5c9 0 17.8-.8 26.5.2 14.5 1.7 23 13.5 22.5 29.3s-9.7 25.7-24.2 26.9c-8.1.7-16.3.1-24.8.1zm10.3-46.5v36.5c9.2-.4 19 2.3 25.2-7 4.8-7.1 4.7-14.9.3-22.1-6.1-9.9-16-7.3-25.5-7.4zM228.4 161.3h-10.2v-56.5h9.9v23.4h27.5v-23.4h10.1v56.5H256v-22.4h-27.6v22.4z"/></svg>