<?xml version="1.0" encoding="utf-8"?>
<!-- Generator: Adobe Illustrator 19.2.0, SVG Export Plug-In . SVG Version: 6.00 Build 0)  -->
<svg version="1.1" id="Layer_1" xmlns="http://www.w3.org/2000/svg" xmlns:xlink="http://www.w3.org/1999/xlink" x="0px" y="0px"
	 width="265.7px" height="265.7px" viewBox="0 0 265.7 265.7" style="enable-background:new 0 0 265.7 265.7;" xml:space="preserve"
	>
<style type="text/css">
	.st0{fill:#FFFFFF;}
</style>
<title>logo</title>
<path class="st0" d="M66.8,207.7l-8.1-7.3l66.6-66.5L57.4,66.1l8-6.8l66.8,66.9L200.3,58l6.3,8.6l-66.4,66.3l67,66.9l-6.9,7.3
	l-66.5-66.6L66.8,207.7z"/>
<path class="st0" d="M0,161.3v-56.5c9,0,17.8-0.8,26.5,0.2c14.5,1.7,23,13.5,22.5,29.3s-9.7,25.7-24.2,26.9
	C16.7,161.9,8.5,161.3,0,161.3z M10.3,114.8v36.5c9.2-0.4,19,2.3,25.2-7c4.8-7.1,4.7-14.9,0.3-22.1
	C29.7,112.3,19.8,114.9,10.3,114.8z"/>
<path class="st0" d="M228.4,161.3h-10.2v-56.5h9.9v23.4h27.5v-23.4h10.1v56.5H256v-22.4h-27.6V161.3L228.4,161.3L228.4,161.3z"/>
</svg>
